<?xml version="1.0" encoding="UTF-8"?>
<svg enable-background="new 0 0 309.267 309.267" version="1.1" viewBox="0 0 309.27 309.27" xml:space="preserve" xmlns="http://www.w3.org/2000/svg">

	<path d="m260.94 43.491h-135.3s-18.324-28.994-28.994-28.994h-48.323c-10.67 0-19.329 8.65-19.329 19.329v222.29c0 10.67 8.659 19.329 19.329 19.329h212.62c10.67 0 19.329-8.659 19.329-19.329v-193.29c0-10.67-8.659-19.329-19.329-19.329z" fill="#D0994B"/>
	<path d="M28.994,72.484h251.279v77.317H28.994V72.484z" fill="#E4E7E7"/>
	<path d="m19.329 148.42h270.61c10.67 0 19.329 6.2373 19.329 13.938l-19.329 118.47c0 7.6938-8.659 13.938-19.329 13.938h-231.95c-10.67 0-19.329-6.2438-19.329-13.938l-19.329-118.47c0-7.701 8.659-13.938 19.329-13.938z" fill="#f4b459"/>

</svg>
