<svg width="20" height="23" viewBox="0 0 20 23" fill="none" xmlns="http://www.w3.org/2000/svg">
    <path
        d="M2.22222 22.4C1.61111 22.4 1.08778 22.1809 0.652222 21.7426C0.217407 21.3035 0 20.776 0 20.16V4.48C0 3.864 0.217407 3.33685 0.652222 2.89856C1.08778 2.45952 1.61111 2.24 2.22222 2.24H3.33333V0H5.55556V2.24H14.4444V0H16.6667V2.24H17.7778C18.3889 2.24 18.9122 2.45952 19.3478 2.89856C19.7826 3.33685 20 3.864 20 4.48V20.16C20 20.776 19.7826 21.3035 19.3478 21.7426C18.9122 22.1809 18.3889 22.4 17.7778 22.4H2.22222ZM2.22222 20.16H17.7778V8.96H2.22222V20.16ZM2.22222 6.72H17.7778V4.48H2.22222V6.72ZM10 13.44C9.68519 13.44 9.42148 13.3325 9.20889 13.1174C8.99556 12.9031 8.88889 12.6373 8.88889 12.32C8.88889 12.0027 8.99556 11.7365 9.20889 11.5214C9.42148 11.3071 9.68519 11.2 10 11.2C10.3148 11.2 10.5789 11.3071 10.7922 11.5214C11.0048 11.7365 11.1111 12.0027 11.1111 12.32C11.1111 12.6373 11.0048 12.9031 10.7922 13.1174C10.5789 13.3325 10.3148 13.44 10 13.44ZM5.55556 13.44C5.24074 13.44 4.97667 13.3325 4.76333 13.1174C4.55074 12.9031 4.44444 12.6373 4.44444 12.32C4.44444 12.0027 4.55074 11.7365 4.76333 11.5214C4.97667 11.3071 5.24074 11.2 5.55556 11.2C5.87037 11.2 6.13445 11.3071 6.34778 11.5214C6.56037 11.7365 6.66667 12.0027 6.66667 12.32C6.66667 12.6373 6.56037 12.9031 6.34778 13.1174C6.13445 13.3325 5.87037 13.44 5.55556 13.44ZM14.4444 13.44C14.1296 13.44 13.8659 13.3325 13.6533 13.1174C13.44 12.9031 13.3333 12.6373 13.3333 12.32C13.3333 12.0027 13.44 11.7365 13.6533 11.5214C13.8659 11.3071 14.1296 11.2 14.4444 11.2C14.7593 11.2 15.023 11.3071 15.2356 11.5214C15.4489 11.7365 15.5556 12.0027 15.5556 12.32C15.5556 12.6373 15.4489 12.9031 15.2356 13.1174C15.023 13.3325 14.7593 13.44 14.4444 13.44ZM10 17.92C9.68519 17.92 9.42148 17.8125 9.20889 17.5974C8.99556 17.3831 8.88889 17.1173 8.88889 16.8C8.88889 16.4827 8.99556 16.2169 9.20889 16.0026C9.42148 15.7875 9.68519 15.68 10 15.68C10.3148 15.68 10.5789 15.7875 10.7922 16.0026C11.0048 16.2169 11.1111 16.4827 11.1111 16.8C11.1111 17.1173 11.0048 17.3831 10.7922 17.5974C10.5789 17.8125 10.3148 17.92 10 17.92ZM5.55556 17.92C5.24074 17.92 4.97667 17.8125 4.76333 17.5974C4.55074 17.3831 4.44444 17.1173 4.44444 16.8C4.44444 16.4827 4.55074 16.2169 4.76333 16.0026C4.97667 15.7875 5.24074 15.68 5.55556 15.68C5.87037 15.68 6.13445 15.7875 6.34778 16.0026C6.56037 16.2169 6.66667 16.4827 6.66667 16.8C6.66667 17.1173 6.56037 17.3831 6.34778 17.5974C6.13445 17.8125 5.87037 17.92 5.55556 17.92ZM14.4444 17.92C14.1296 17.92 13.8659 17.8125 13.6533 17.5974C13.44 17.3831 13.3333 17.1173 13.3333 16.8C13.3333 16.4827 13.44 16.2169 13.6533 16.0026C13.8659 15.7875 14.1296 15.68 14.4444 15.68C14.7593 15.68 15.023 15.7875 15.2356 16.0026C15.4489 16.2169 15.5556 16.4827 15.5556 16.8C15.5556 17.1173 15.4489 17.3831 15.2356 17.5974C15.023 17.8125 14.7593 17.92 14.4444 17.92Z"
        fill="#17A2B8" />
</svg>
    